<?xml version="1.0" encoding="UTF-8"?>
<svg xmlns="http://www.w3.org/2000/svg" xmlns:xlink="http://www.w3.org/1999/xlink" width="27px" height="27px" viewBox="0 0 27 27" version="1.1">
<g id="surface1">
<path style=" stroke:none;fill-rule:evenodd;fill:rgb(9.019608%,46.666667%,94.901961%);fill-opacity:1;" d="M 23.703125 0 C 25.523438 0 27 1.476562 27 3.296875 L 27 23.703125 C 27 25.523438 25.523438 27 23.703125 27 L 18.085938 27 L 18.085938 16.828125 L 21.597656 16.828125 L 22.265625 12.46875 L 18.085938 12.46875 L 18.085938 9.640625 C 18.085938 8.449219 18.671875 7.289062 20.542969 7.289062 L 22.445312 7.289062 L 22.445312 3.578125 C 22.445312 3.578125 20.71875 3.285156 19.070312 3.285156 C 15.625 3.285156 13.375 5.371094 13.375 9.148438 L 13.375 12.46875 L 9.550781 12.46875 L 9.550781 16.828125 L 13.375 16.828125 L 13.375 27 L 3.296875 27 C 1.476562 27 0 25.523438 0 23.703125 L 0 3.296875 C 0 1.476562 1.476562 0 3.296875 0 Z M 23.703125 0 "/>
</g>
</svg>
