<?xml version="1.0" encoding="UTF-8"?>
<svg xmlns="http://www.w3.org/2000/svg" xmlns:xlink="http://www.w3.org/1999/xlink" width="27px" height="27px" viewBox="0 0 27 27" version="1.1">
<g id="surface1">
<path style=" stroke:none;fill-rule:evenodd;fill:rgb(14.117647%,16.078431%,18.039216%);fill-opacity:1;" d="M 25.664062 1.480469 C 26.269531 2.285156 26.546875 3.617188 26.679688 5.238281 C 26.859375 7.652344 26.929688 10.554688 27 13.550781 C 26.910156 16.601562 26.875 19.679688 26.679688 21.863281 C 26.527344 23.539062 26.203125 24.660156 25.660156 25.339844 C 24.96875 26.019531 23.644531 26.59375 21.753906 26.730469 C 19.457031 26.925781 16.625 26.921875 13.496094 27 C 10.023438 26.941406 7.664062 26.964844 5.191406 26.730469 C 3.261719 26.597656 2 26.03125 1.222656 25.34375 C 0.648438 24.574219 0.480469 23.753906 0.320312 21.828125 C 0.121094 19.605469 0.078125 16.59375 0.00390625 13.566406 C 0.117188 10.554688 0.121094 7.523438 0.324219 5.253906 C 0.457031 3.464844 0.667969 2.261719 1.210938 1.496094 C 1.976562 0.847656 3.273438 0.523438 5.214844 0.363281 C 7.871094 0.0546875 10.636719 -0.0078125 13.492188 0 C 16.4375 0.00390625 19.257812 0.0898438 21.78125 0.335938 C 23.480469 0.472656 24.886719 0.765625 25.660156 1.480469 Z M 25.664062 1.480469 "/>
<path style=" stroke:none;fill-rule:nonzero;fill:rgb(100%,100%,100%);fill-opacity:1;" d="M 13.171875 5.367188 C 9.269531 5.367188 5.945312 8.199219 5.320312 12.050781 C 4.695312 15.902344 6.953125 19.640625 10.65625 20.875 C 11.054688 20.949219 11.199219 20.703125 11.199219 20.492188 C 11.199219 20.304688 11.191406 19.675781 11.191406 19.011719 C 8.976562 19.492188 8.507812 18.074219 8.507812 18.074219 C 8.144531 17.152344 7.625 16.90625 7.625 16.90625 C 6.902344 16.414062 7.675781 16.425781 7.675781 16.425781 C 8.472656 16.480469 8.898438 17.246094 8.898438 17.246094 C 9.609375 18.460938 10.761719 18.109375 11.214844 17.90625 C 11.285156 17.390625 11.492188 17.039062 11.71875 16.84375 C 9.953125 16.640625 8.09375 15.960938 8.09375 12.914062 C 8.082031 12.121094 8.375 11.355469 8.914062 10.777344 C 8.832031 10.578125 8.558594 9.769531 8.992188 8.671875 C 8.992188 8.671875 9.660156 8.457031 11.179688 9.488281 C 12.484375 9.128906 13.859375 9.128906 15.164062 9.488281 C 16.6875 8.453125 17.351562 8.667969 17.351562 8.667969 C 17.785156 9.761719 17.511719 10.574219 17.429688 10.773438 C 17.96875 11.351562 18.261719 12.117188 18.25 12.910156 C 18.25 15.964844 16.386719 16.636719 14.617188 16.835938 C 14.902344 17.082031 15.15625 17.566406 15.15625 18.308594 C 15.15625 19.371094 15.144531 20.230469 15.144531 20.492188 C 15.144531 20.707031 15.289062 20.953125 15.691406 20.875 C 19.394531 19.640625 21.65625 15.902344 21.03125 12.046875 C 20.402344 8.195312 17.074219 5.367188 13.171875 5.367188 Z M 13.171875 5.367188 "/>
<path style=" stroke:none;fill-rule:nonzero;fill:rgb(100%,100%,100%);fill-opacity:1;" d="M 8.230469 16.792969 C 8.210938 16.832031 8.148438 16.847656 8.09375 16.816406 C 8.035156 16.789062 8.003906 16.738281 8.019531 16.699219 C 8.039062 16.65625 8.101562 16.644531 8.160156 16.671875 C 8.214844 16.699219 8.25 16.753906 8.230469 16.792969 Z M 8.230469 16.792969 "/>
<path style=" stroke:none;fill-rule:nonzero;fill:rgb(100%,100%,100%);fill-opacity:1;" d="M 8.550781 17.152344 C 8.511719 17.1875 8.4375 17.171875 8.390625 17.117188 C 8.339844 17.058594 8.328125 16.984375 8.367188 16.949219 C 8.402344 16.914062 8.476562 16.929688 8.527344 16.988281 C 8.582031 17.042969 8.589844 17.117188 8.550781 17.152344 Z M 8.550781 17.152344 "/>
<path style=" stroke:none;fill-rule:nonzero;fill:rgb(100%,100%,100%);fill-opacity:1;" d="M 8.863281 17.609375 C 8.816406 17.644531 8.738281 17.609375 8.6875 17.542969 C 8.636719 17.472656 8.636719 17.386719 8.6875 17.351562 C 8.734375 17.316406 8.816406 17.347656 8.863281 17.417969 C 8.914062 17.488281 8.914062 17.578125 8.863281 17.609375 Z M 8.863281 17.609375 "/>
<path style=" stroke:none;fill-rule:nonzero;fill:rgb(100%,100%,100%);fill-opacity:1;" d="M 9.292969 18.054688 C 9.25 18.101562 9.160156 18.089844 9.089844 18.023438 C 9.023438 17.957031 9 17.867188 9.046875 17.820312 C 9.089844 17.769531 9.183594 17.785156 9.25 17.851562 C 9.320312 17.914062 9.339844 18.003906 9.292969 18.054688 Z M 9.292969 18.054688 "/>
<path style=" stroke:none;fill-rule:nonzero;fill:rgb(100%,100%,100%);fill-opacity:1;" d="M 9.886719 18.308594 C 9.871094 18.371094 9.78125 18.402344 9.691406 18.375 C 9.597656 18.347656 9.542969 18.273438 9.558594 18.210938 C 9.578125 18.148438 9.664062 18.121094 9.757812 18.148438 C 9.851562 18.175781 9.90625 18.246094 9.886719 18.3125 Z M 9.886719 18.308594 "/>
<path style=" stroke:none;fill-rule:nonzero;fill:rgb(100%,100%,100%);fill-opacity:1;" d="M 10.539062 18.359375 C 10.539062 18.425781 10.464844 18.476562 10.371094 18.480469 C 10.277344 18.480469 10.199219 18.425781 10.195312 18.363281 C 10.195312 18.300781 10.273438 18.242188 10.367188 18.242188 C 10.460938 18.242188 10.539062 18.296875 10.539062 18.359375 Z M 10.539062 18.359375 "/>
<path style=" stroke:none;fill-rule:nonzero;fill:rgb(100%,100%,100%);fill-opacity:1;" d="M 11.144531 18.253906 C 11.15625 18.316406 11.09375 18.382812 10.996094 18.402344 C 10.902344 18.417969 10.820312 18.378906 10.808594 18.316406 C 10.796875 18.253906 10.859375 18.183594 10.957031 18.167969 C 11.050781 18.152344 11.132812 18.191406 11.144531 18.253906 Z M 11.144531 18.253906 "/>
</g>
</svg>
