<?xml version="1.0" encoding="UTF-8"?>
<svg xmlns="http://www.w3.org/2000/svg" xmlns:xlink="http://www.w3.org/1999/xlink" width="27px" height="27px" viewBox="0 0 27 27" version="1.1">
<defs>
<linearGradient id="linear0" gradientUnits="userSpaceOnUse" x1="328.27" y1="508.05" x2="183.73" y2="3.95" gradientTransform="matrix(0.0527344,0,0,0.0527344,0,0)">
<stop offset="0" style="stop-color:rgb(100%,85.882353%,45.098039%);stop-opacity:1;"/>
<stop offset="0.08" style="stop-color:rgb(99.215686%,67.843137%,30.588235%);stop-opacity:1;"/>
<stop offset="0.15" style="stop-color:rgb(98.431373%,51.372549%,18.039216%);stop-opacity:1;"/>
<stop offset="0.19" style="stop-color:rgb(98.039216%,45.098039%,12.941176%);stop-opacity:1;"/>
<stop offset="0.23" style="stop-color:rgb(96.470588%,41.176471%,18.431373%);stop-opacity:1;"/>
<stop offset="0.37" style="stop-color:rgb(90.980392%,29.019608%,35.294118%);stop-opacity:1;"/>
<stop offset="0.48" style="stop-color:rgb(87.843137%,21.176471%,45.882353%);stop-opacity:1;"/>
<stop offset="0.55" style="stop-color:rgb(86.666667%,18.431373%,49.803922%);stop-opacity:1;"/>
<stop offset="0.68" style="stop-color:rgb(70.588235%,23.921569%,59.215686%);stop-opacity:1;"/>
<stop offset="0.97" style="stop-color:rgb(30.196078%,37.647059%,83.137255%);stop-opacity:1;"/>
<stop offset="1" style="stop-color:rgb(25.882353%,39.215686%,85.882353%);stop-opacity:1;"/>
</linearGradient>
</defs>
<g id="surface1">
<path style=" stroke:none;fill-rule:nonzero;fill:url(#linear0);" d="M 6.890625 1.238281 L 20.109375 1.238281 C 23.230469 1.238281 25.761719 3.769531 25.761719 6.890625 L 25.761719 20.109375 C 25.761719 23.230469 23.230469 25.761719 20.109375 25.761719 L 6.890625 25.761719 C 3.769531 25.761719 1.238281 23.230469 1.238281 20.109375 L 1.238281 6.890625 C 1.238281 3.769531 3.769531 1.238281 6.890625 1.238281 Z M 6.890625 1.238281 "/>
<path style=" stroke:none;fill-rule:nonzero;fill:rgb(100%,100%,100%);fill-opacity:1;" d="M 17.453125 6.074219 C 19.394531 6.082031 20.960938 7.652344 20.96875 9.589844 L 20.96875 17.410156 C 20.960938 19.347656 19.394531 20.917969 17.457031 20.925781 L 9.546875 20.925781 C 7.605469 20.917969 6.039062 19.347656 6.03125 17.410156 L 6.03125 9.589844 C 6.039062 7.652344 7.605469 6.082031 9.542969 6.074219 L 17.453125 6.074219 M 17.453125 4.441406 L 9.546875 4.441406 C 6.710938 4.441406 4.394531 6.761719 4.394531 9.589844 L 4.394531 17.410156 C 4.394531 20.242188 6.714844 22.558594 9.546875 22.558594 L 17.453125 22.558594 C 20.289062 22.558594 22.605469 20.238281 22.605469 17.410156 L 22.605469 9.589844 C 22.605469 6.757812 20.289062 4.441406 17.453125 4.441406 Z M 17.453125 4.441406 "/>
<path style=" stroke:none;fill-rule:nonzero;fill:rgb(100%,100%,100%);fill-opacity:1;" d="M 13.5 10.449219 C 15.183594 10.449219 16.550781 11.816406 16.550781 13.5 C 16.550781 15.183594 15.183594 16.550781 13.5 16.550781 C 11.816406 16.550781 10.449219 15.183594 10.449219 13.5 C 10.449219 11.816406 11.816406 10.449219 13.5 10.449219 M 13.5 8.8125 C 10.910156 8.8125 8.8125 10.910156 8.8125 13.5 C 8.8125 16.089844 10.910156 18.1875 13.5 18.1875 C 16.089844 18.1875 18.1875 16.089844 18.1875 13.5 C 18.1875 10.910156 16.089844 8.8125 13.5 8.8125 Z M 13.5 8.8125 "/>
<path style=" stroke:none;fill-rule:nonzero;fill:rgb(100%,100%,100%);fill-opacity:1;" d="M 19.398438 8.609375 C 19.398438 9.222656 18.902344 9.71875 18.289062 9.71875 C 17.675781 9.71875 17.175781 9.222656 17.175781 8.609375 C 17.175781 7.996094 17.675781 7.496094 18.289062 7.496094 C 18.902344 7.496094 19.398438 7.996094 19.398438 8.609375 Z M 19.398438 8.609375 "/>
</g>
</svg>
