<?xml version="1.0" encoding="UTF-8"?>
<svg xmlns="http://www.w3.org/2000/svg" xmlns:xlink="http://www.w3.org/1999/xlink" width="27px" height="27px" viewBox="0 0 27 27" version="1.1">
<g id="surface1">
<path style=" stroke:none;fill-rule:nonzero;fill:rgb(11.372549%,63.137255%,94.901961%);fill-opacity:1;" d="M 23.625 27 L 3.375 27 C 1.511719 27 0 25.488281 0 23.625 L 0 3.375 C 0 1.511719 1.511719 0 3.375 0 L 23.625 0 C 25.488281 0 27 1.511719 27 3.375 L 27 23.625 C 27 25.488281 25.488281 27 23.625 27 Z M 23.625 27 "/>
<path style=" stroke:none;fill-rule:nonzero;fill:rgb(100%,100%,100%);fill-opacity:1;" d="M 10.367188 20.359375 C 16.734375 20.359375 20.214844 15.078125 20.214844 10.507812 C 20.214844 10.359375 20.214844 10.210938 20.210938 10.0625 C 20.882812 9.578125 21.472656 8.964844 21.9375 8.269531 C 21.316406 8.546875 20.648438 8.726562 19.945312 8.816406 C 20.660156 8.390625 21.207031 7.707031 21.472656 6.898438 C 20.804688 7.296875 20.0625 7.582031 19.269531 7.734375 C 18.636719 7.058594 17.738281 6.640625 16.746094 6.640625 C 14.835938 6.640625 13.285156 8.195312 13.285156 10.105469 C 13.285156 10.375 13.316406 10.636719 13.371094 10.894531 C 10.496094 10.753906 7.945312 9.367188 6.238281 7.277344 C 5.941406 7.789062 5.769531 8.382812 5.769531 9.019531 C 5.769531 10.21875 6.386719 11.277344 7.308594 11.898438 C 6.742188 11.878906 6.210938 11.726562 5.746094 11.46875 L 5.746094 11.515625 C 5.746094 13.191406 6.9375 14.59375 8.519531 14.910156 C 8.226562 14.992188 7.925781 15.03125 7.605469 15.03125 C 7.382812 15.03125 7.167969 15.011719 6.960938 14.972656 C 7.398438 16.347656 8.679688 17.347656 10.191406 17.375 C 9.003906 18.304688 7.511719 18.859375 5.894531 18.859375 C 5.617188 18.859375 5.339844 18.847656 5.070312 18.8125 C 6.59375 19.785156 8.417969 20.359375 10.367188 20.359375 "/>
</g>
</svg>
