<?xml version="1.0" encoding="UTF-8"?>
<svg xmlns="http://www.w3.org/2000/svg" xmlns:xlink="http://www.w3.org/1999/xlink" width="27px" height="27px" viewBox="0 0 27 27" version="1.1">
<g id="surface1">
<rect x="0" y="0" width="27" height="27" style="fill:rgb(29.803922%,45.882353%,63.921569%);fill-opacity:1;stroke:none;"/>
<path style=" stroke:none;fill-rule:evenodd;fill:rgb(100%,100%,100%);fill-opacity:1;" d="M 13.273438 19.464844 L 14.535156 19.464844 C 14.535156 19.464844 14.914062 19.425781 15.109375 19.214844 C 15.289062 19.023438 15.285156 18.660156 15.285156 18.660156 C 15.285156 18.660156 15.257812 16.96875 16.042969 16.71875 C 16.816406 16.476562 17.8125 18.355469 18.863281 19.078125 C 19.660156 19.625 20.265625 19.503906 20.265625 19.503906 L 23.085938 19.464844 C 23.085938 19.464844 24.558594 19.375 23.859375 18.21875 C 23.800781 18.121094 23.453125 17.359375 21.765625 15.792969 C 19.996094 14.152344 20.234375 14.417969 22.363281 11.582031 C 23.65625 9.855469 24.175781 8.800781 24.015625 8.351562 C 23.859375 7.921875 22.90625 8.035156 22.90625 8.035156 L 19.734375 8.054688 C 19.734375 8.054688 19.5 8.023438 19.324219 8.125 C 19.15625 8.226562 19.046875 8.464844 19.046875 8.464844 C 19.046875 8.464844 18.542969 9.804688 17.875 10.9375 C 16.460938 13.335938 15.898438 13.464844 15.667969 13.316406 C 15.128906 12.96875 15.261719 11.921875 15.261719 11.175781 C 15.261719 8.851562 15.617188 7.882812 14.578125 7.632812 C 14.230469 7.550781 13.976562 7.496094 13.097656 7.484375 C 11.964844 7.472656 11.007812 7.488281 10.464844 7.753906 C 10.105469 7.933594 9.824219 8.324219 9.996094 8.347656 C 10.203125 8.375 10.679688 8.476562 10.929688 8.820312 C 11.257812 9.261719 11.246094 10.253906 11.246094 10.253906 C 11.246094 10.253906 11.429688 12.988281 10.808594 13.328125 C 10.382812 13.5625 9.792969 13.085938 8.535156 10.910156 C 7.890625 9.796875 7.402344 8.5625 7.402344 8.5625 C 7.402344 8.5625 7.308594 8.335938 7.140625 8.210938 C 6.9375 8.0625 6.65625 8.015625 6.65625 8.015625 L 3.640625 8.035156 C 3.640625 8.035156 3.1875 8.046875 3.023438 8.242188 C 2.875 8.417969 3.011719 8.78125 3.011719 8.78125 C 3.011719 8.78125 5.371094 14.300781 8.042969 17.082031 C 10.492188 19.632812 13.273438 19.464844 13.273438 19.464844 Z M 13.273438 19.464844 "/>
</g>
</svg>
